<svg width="699.67598" height="299.99999" xmlns="http://www.w3.org/2000/svg" xmlns:svg="http://www.w3.org/2000/svg" version="1.1">
  <path d="m199.9,0l-26.7,46.24l-26.7,-46.24l-146.5,0l173.2,300l113.4,-196.42l0,184.88l117.21,0l0,-200.91l122.66,212.45l173.2,-300l-146.5,0l-26.7,46.24l-26.7,-46.24l-299.87,0z" fill="white" id="path6083" />
  <path d="m173.2,275.47l151.96,-263.2l-118.18,0l-33.78,58.5l-33.78,-58.5l-118.18,0l151.96,263.2z" fill="#dc0000" id="V-1" />
  <path d="m298.87,276.2l0,-193.86l40.46,-70.07l147.31,0l0,58.5l-95.1,0l0,205.43l-92.67,0z" fill="#009500" id="T" />
  <path d="m526.47,275.47l151.96,-263.2l-118.18,0l-33.78,58.5l-27.57,-47.74l0,60.01l-83.54,0l111.11,192.43z" fill="#000095" id="V-2" />
</svg>
