<svg width="1151" height="431" viewBox="0 0 1151 431" version="1.1" xmlns="http://www.w3.org/2000/svg">
   <path d="M 0,0 H 196.86516 L 268.65296,124.34012 340.44076,0 H 708.44241 L 780.66563,125.09428 852.88885,0 H 1049.5019 L 780.66563,430.22805 620.15041,172.76297 v 242.53878 h -192 V 174.68535 L 268.65296,429.93463 Z" fill="#fff" />
   <path d="M 32.4729 18 H 186.4729 L 268.653 160.3401 L 350.8331 18 H 504.8331 L 268.653 395.9672 Z" fill="#dc0000" />
   <path d="M 526.0583 18 H 698.0501 L 770.2733 143.0943 H 602.1504 V 397.3019 H 446.1504 V 143.0943 Z" fill="#009600" />
   <path d="M 863.2812 18 H 1017.0291 L 780.6656 396.2607 L 634.0842 161.0943 H 780.6656 Z" fill="#000096" />
   <path d="M 1070.7772 0 H 1149.5834 V 416.2191 H 1007.8397 V 220.746 H 932.8398 Z" fill="#fff" />
   <path d="M 1080.7548 18 H 1131.5834 V 398.2191 H 1025.8397 V 202.746 H 965.3127 Z" fill="#dc0000" />
</svg>
