<svg width="1245" height="441" viewBox="0 -10.8 1245 441" version="1.1" id="svg6" xmlns="http://www.w3.org/2000/svg">
  <path d="m 1055.9932,6.9844 c 34.8112,-24.4507 114.3796,-26.9372 158.7225,14.5047 44.3427,41.4418 29.4236,116.4516 13.6757,146.7041 -15.7479,30.2526 -83.7126,114.3796 -83.7126,114.3796 h 60.9195 V 420.4131 H 895.8859 L 1085.134,162.2464 c 26.5448,-36.2117 4.7012,-50.0912 -11.1743,-51.5568 -17.5061,-1.616 -45.5999,6.7893 -86.5252,27.9949 z" fill="#ffffff" id="path1" />
  <path d="M 0,0 H 196.8652 L 268.653,124.3401 340.4408,0 H 708.4424 L 780.6656,125.0943 852.8889,0 h 196.613 L 780.6656,430.228 620.1504,172.763 v 242.5387 h -192 V 174.6853 L 268.653,429.9346 Z" fill="#ffffff" id="path2" />
  <path d="M 32.4729 18 H 186.4729 L 268.653 160.3401 L 350.8331 18 H 504.8331 L 268.653 395.9672 Z" fill="#dc0000" id="path3" />
  <path d="M 526.0583 18 H 698.0501 L 770.2733 143.0943 H 602.1504 V 397.3019 H 446.1504 V 143.0943 Z" fill="#009600" id="path4" />
  <path d="M 863.2812 18 H 1017.0291 L 780.6656 396.2607 L 634.0842 161.0943 H 780.6656 Z" fill="#000096" id="path5" />
  <path d="m 1069.1017,20.7856 c 35.1752,-25.9107 121.5234,-15.9356 142.1224,27.6167 20.5991,43.5523 14.1251,90.6358 -10.888,127.4198 -25.0132,36.784 -61.0771,82.3075 -96.227,124.7507 h 83.4892 V 402.4131 H 938.4338 l 163.9096,-225.4139 c 21.2308,-29.1973 30.6621,-78.3858 -23.3397,-86.0971 -21.6722,-3.0947 -51.2433,9.2993 -51.2433,9.2993 z" fill="#dc0000" id="path6" />
</svg>
