<svg width="1264" height="431" viewBox="0 0 1264 431" version="1.1" xmlns="http://www.w3.org/2000/svg">
  <path d="m 0 0 h 196.8652 l 71.7878 124.3401 l 71.7878 -124.3401 h 368.0016 l 72.2232 125.0943 l 72.2233 -125.0943 h 410.6899 l -109.9422 162.9959 c 38.7783 29.9863 46.2621 84.0055 27.3489 141.9029 c -18.9131 57.8974 -77.2184 92.5145 -107.3251 104.4799 c -33.4036 13.2758 -88.72 23.3773 -142.2845 3.0436 c -51.6708 -19.6149 -83.2997 -67.3222 -83.2997 -67.3222 l 95.3434 -158.6781 l 7.2261 48.4099 c 2.0343 13.6286 13.6037 52.1823 42.9438 59.415 c 29.3401 7.2327 52.2429 -9.4904 57.0192 -35.1459 c 3.8044 -20.4348 -2.2304 -31.9442 -15.723 -41.0975 c -6.6187 -4.4901 -18.2081 -7.7637 -31.1218 -10.0682 l -18.7825 -2.7524 l 56.8666 -76.8509 h -72.5369 l -188.6455 301.8959 l -160.5152 -257.465 v 242.5387 h -192 v -240.6164 l -159.4974 255.2493 z" fill="#fff" />
  <path d="M 32.4729 18 H 186.4729 L 268.653 160.3401 L 350.8331 18 H 504.8331 L 268.653 395.9672 Z" fill="#dc0000" />
  <path d="M 526.0583 18 H 698.0501 L 770.2733 143.0943 H 602.1504 V 397.3019 H 446.1504 V 143.0943 Z" fill="#009600" />
  <path d="M 863.2812 18 H 1017.0291 L 780.6656 396.2607 L 634.0842 161.0943 H 780.6656 Z" fill="#000096" />
  <path d="m 1038.2543,18 h 191.4714 l -101.1746,149.99753 c 30.5545,16.88812 47.5377,48.15269 44.0639,91.96173 -1.7369,21.90451 -10.904,53.21734 -32.133,79.99488 -21.229,26.77754 -54.5201,49.0198 -85.9776,57.02893 -11.6319,2.9615 -25.3434,6.25073 -35.8441,7.26112 -46.1356,4.43921 -78.26367,-3.88292 -102.15838,-18.59285 -29.31444,-18.0464 -46.36066,-42.32477 -46.36066,-42.32477 l 62.49226,-104.00459 c 2.70063,21.59995 12.25321,36.88408 23.71631,50.80355 11.4631,13.91948 25.79422,23.62878 49.94637,23.47206 24.1521,-0.15672 41.2125,-11.19017 52.6756,-28.65774 11.4631,-17.46758 12.009,-34.93516 9.962,-46.80765 -2.047,-11.87249 -12.1349,-38.86294 -52.1245,-45.70107 l 60.6655,-81.98478 h -96.98744 z" fill="#dc0000" />
</svg>
