<svg width="1238" height="431" viewBox="0 0 1238 431" version="1.1" id="svg6" xml:space="preserve" xmlns="http://www.w3.org/2000/svg">
  <path d="M 0,0 H 196.86516 L 268.65296,124.34012 340.44076,0 H 708.44241 L 780.66563,125.09428 852.88885,0 H 1049.5019 L 780.66563,430.22805 620.15041,172.76297 v 242.53878 h -192 V 174.68535 L 268.65296,429.93463 Z" fill="#ffffff" id="path1" />
  <path d="M 32.4729 18 H 186.4729 L 268.653 160.3401 L 350.8331 18 H 504.8331 L 268.653 395.9672 Z" fill="#dc0000" id="path2" />
  <path d="M 526.0583 18 H 698.0501 L 770.2733 143.0943 H 602.1504 V 397.3019 H 446.1504 V 143.0943 Z" fill="#009600" id="path3" />
  <path d="M 863.2812 18 H 1017.0291 L 780.6656 396.2607 L 634.0842 161.0943 H 780.6656 Z" fill="#000096" id="path4" />
  <path id="path5" style="fill:#ffffff;fill-rule:evenodd" d="m 1056.7092,222.06324 v 27.33645 h -14.8425 z M 1069.8906,0 h 121.3477 v 249.39969 h 46.7659 V 357.345 h -46.7659 v 65.90689 H 1056.7092 V 357.345 H 911.98059 v -94.53861 z" />
  <path id="path6" style="fill:#dc0000;fill-rule:evenodd" d="M 1074.7092 151.1881 V 267.3997 H 1011.6115 Z M 1080.0745 18 H 1173.2383 V 267.3997 H 1220.0042 V 339.345 H 1173.2383 V 405.2519 H 1074.7092 V 339.345 H 929.9806 V 267.7982 Z" />
</svg>
