<svg width="1257.05" height="433.5" viewBox="0 -2.5 1257.05 433.5" version="1.1" xmlns="http://www.w3.org/2000/svg">
  <path d="M 0,0 H 196.86516 L 268.65296,124.34012 340.44076,0 H 708.44241 L 780.66563,125.09428 852.88885,0 H 1049.5019 L 780.66563,430.22805 620.15041,172.76297 v 242.53878 h -192 V 174.68535 L 268.65296,429.93463 Z" fill="#ffffff" id="path1" />
  <path d="m 32.4729,18 h 154 L 268.653,160.3401 350.8331,18 h 154 L 268.653,395.9672 Z" fill="#dc0000" id="path2" />
  <path d="m 526.0583,18 h 171.9918 l 72.2232,125.0943 H 602.1504 v 254.2076 h -156 V 143.0943 Z" fill="#009600" id="path10" />
  <path d="m 863.2812,18 h 153.7479 L 780.6656,396.2607 634.0842,161.0943 h 146.5814 z" fill="#000096" id="path3" />
  <path id="path8" style="fill:#ffffff;fill-rule:evenodd" d="m 1080.8301 -2.0449 l -7.5742 8.373 c -35.8046 39.5865 -89.8973 116.2634 -103.3672 145.6895 s -33.9162 63.483 -30.9844 132.3613 c 3.1802 74.7134 84.7387 161.1228 188.8086 135.5508 s 119.4984 -115.8089 122.5176 -157.7285 c 3.1733 -44.06 -29.3878 -123.596 -107.3535 -142.0938 c 16.5441 -20.7954 34.8297 -40.5158 54.9589 -59.7559 l 22.5235 -21.5273 z m 14.9746 232.4277 a 30.9141 34.0137 0 0 1 30.9141 34.0137 a 30.9141 34.0137 0 0 1 -30.9141 34.0156 a 30.9141 34.0137 0 0 1 -30.916 -34.0156 a 30.9141 34.0137 0 0 1 30.916 -34.0137 z" />
  <path style="fill:#0096ff;fill-rule:evenodd" d="m 1086.6063 18.4032 l 98.7921 28.9371 c -28.5259 27.2658 -53.6959 55.6361 -75.5098 86.8114 c 91.8703 0.9436 125.2204 87.4405 122.3887 126.7573 s -15.4166 118.5794 -108.8599 141.5403 s -163.8586 -56.1159 -166.5283 -118.8352 s 17.3529 -97.8601 29.3663 -124.1043 s 65.4383 -102.5063 100.3509 -141.1066 z m 9.1979 193.979 a 48.9153 52.015 0 0 1 48.9151 52.0149 a 48.9153 52.015 0 0 1 -48.9151 52.015 a 48.9153 52.015 0 0 1 -48.9153 -52.015 a 48.9153 52.015 0 0 1 48.9153 -52.0149 z" id="path6" />
</svg>
