<svg width="1313.3101" height="441.56201" viewBox="0 -11.334 1313.3101 441.56201" version="1.1" id="svg6" xmlns="http://www.w3.org/2000/svg">
  <path d="M 0,0 H 196.86516 L 268.65296,124.34012 340.44076,0 H 708.44241 L 780.66563,125.09428 852.88885,0 H 1049.5019 L 780.66563,430.22805 620.15041,172.76297 v 242.53878 h -192 V 174.68535 L 268.65296,429.93463 Z" fill="#ffffff" id="path1" />
  <path d="m 32.4729,18 h 154 L 268.653,160.3401 350.8331,18 h 154 L 268.653,395.9672 Z" fill="#dc0000" id="path2" />
  <path d="m 526.0583,18 h 171.9918 l 72.2232,125.0943 H 602.1504 v 254.2076 h -156 V 143.0943 Z" fill="#009600" id="path3" />
  <path d="m 863.2812,18 h 153.7479 L 780.6656,396.2607 634.0842,161.0943 h 146.5814 z" fill="#000096" id="path4" />
  <path id="path10" fill="#ffffff" d="m 1151,-11.333984 c -95.1289,0 -155.25105,82.740661 -154.88477,165.531254 0.313,70.72464 47.37867,119.06286 101.73827,137.45898 -28.2307,33.3156 -56.8667,64.18131 -85.7441,95.7832 l -27.54495,30.14258 h 156.48045 l 5.2989,-5.43555 c 71.5503,-73.39673 166.9667,-178.2135 166.9667,-269.60351 0,-94.117326 -69.0098,-153.876954 -162.3105,-153.876954 z m 0,122.150394 A 35.793248,38.16499 0 0 1 1186.7932,148.9814 35.793248,38.16499 0 0 1 1151,187.14639 35.793248,38.16499 0 0 1 1115.2068,148.9814 35.793248,38.16499 0 0 1 1151,110.81641 Z" />
  <path id="path8" fill="#dc0000" fill-rule="evenodd" d="M 1151,92.816406 A 53.793213,56.164994 0 0 1 1204.7932,148.9814 53.793213,56.164994 0 0 1 1151,205.14639 53.793213,56.164994 0 0 1 1097.2068,148.9814 53.793213,56.164994 0 0 1 1151,92.816406 Z M 1130.191,280.92203 C 1072.641,273.44379 1014.4407,227.59887 1014.1155,154.11695 1013.7904,80.635028 1067.1136,6.6653955 1151,6.6653955 c 83.8864,0 144.3106,52.6512755 144.3106,135.8785445 0,83.22727 -90.5844,183.92766 -161.8564,257.03891 h -108.0575 c 35.0953,-38.40635 70.2866,-76.14132 104.7943,-118.66082 z" />
</svg>
